<svg width="260" height="260" viewBox="0 0 260 260" fill="none" xmlns="http://www.w3.org/2000/svg">
<path d="M130 260C201.797 260 260 201.797 260 130C260 58.203 201.797 0 130 0C58.203 0 0 58.203 0 130C0 201.797 58.203 260 130 260Z" fill="#F5FCF1"/>
<path d="M129.419 237.948C189.357 237.948 237.946 189.359 237.946 129.421C237.946 69.4836 189.357 20.8945 129.419 20.8945C69.4817 20.8945 20.8926 69.4836 20.8926 129.421C20.8926 189.359 69.4817 237.948 129.419 237.948Z" fill="#92D871"/>
<path d="M119.877 174.105L88.2148 133.324L106.627 118.976L121.618 138.287L172.263 84.7305L189.197 100.804L119.877 174.105Z" fill="white"/>
</svg>
